<?xml version="1.0" encoding="UTF-8"?><svg id="Layer_1" xmlns="http://www.w3.org/2000/svg" viewBox="0 0 500 170"><defs><style>.cls-1{fill:#365aa9;}.cls-2{fill:#0e1131;}</style></defs><path class="cls-2" d="m246.41,20.42c-.38,0-.76.04-1.14.06-8.35-8.54-19.99-13.85-32.88-13.85-25.39,0-45.97,20.58-45.97,45.98s20.58,45.97,45.97,45.97c12.89,0,24.53-5.31,32.88-13.85.38.01.75.06,1.14.06,17.77,0,32.18-14.41,32.18-32.18s-14.41-32.18-32.18-32.18Zm-34.01,64.36c-17.77,0-32.18-14.41-32.18-32.18s14.41-32.18,32.18-32.18c6.25,0,12.07,1.81,17.01,4.9-9.1,5.69-15.18,15.76-15.18,27.29s6.07,21.6,15.18,27.29c-4.94,3.09-10.76,4.9-17.01,4.9Z"/><path class="cls-2" d="m23.17,162.86v-11.72h12.88v11.72h-12.88Zm0-17.51v-48.56h12.88v48.56h-12.88Z"/><path class="cls-2" d="m71.19,115.53c-4.31,0-7.26,1.83-8.87,5.48-.83,1.93-1.25,4.4-1.25,7.4v26.28h-12.65v-48.47h12.25v7.08c1.63-2.49,3.18-4.29,4.63-5.39,2.61-1.96,5.93-2.94,9.93-2.94,5.02,0,9.13,1.31,12.32,3.94,3.19,2.63,4.79,6.99,4.79,13.08v32.7h-13.01v-29.54c0-2.55-.34-4.51-1.02-5.88-1.25-2.49-3.62-3.74-7.13-3.74Z"/><path class="cls-2" d="m148.26,96.28v65.58h-12.34v-6.73c-1.81,2.88-3.88,4.97-6.19,6.28s-5.2,1.96-8.64,1.96c-5.67,0-10.45-2.29-14.32-6.88-3.88-4.59-5.81-10.48-5.81-17.66,0-8.29,1.91-14.81,5.72-19.56,3.82-4.75,8.92-7.13,15.3-7.13,2.94,0,5.55.65,7.84,1.94,2.29,1.29,4.14,3.08,5.57,5.37v-23.17h12.88Zm-34.21,41.61c0,4.48.89,8.06,2.67,10.74,1.75,2.7,4.43,4.05,8.02,4.05s6.33-1.34,8.2-4.01,2.81-6.13,2.81-10.38c0-5.94-1.5-10.19-4.5-12.74-1.84-1.54-3.98-2.32-6.42-2.32-3.71,0-6.44,1.4-8.18,4.21-1.74,2.81-2.61,6.29-2.61,10.45Z"/><path class="cls-2" d="m172.86,96.79v11.72h-12.88v-11.72h12.88Zm0,17.51v48.56h-12.88v-48.56h12.88Z"/><path class="cls-2" d="m226.72,139.69c-.33,2.88-1.83,5.81-4.5,8.78-4.16,4.72-9.98,7.08-17.46,7.08-6.18,0-11.63-1.99-16.35-5.97-4.72-3.98-7.08-10.45-7.08-19.42,0-8.41,2.13-14.85,6.39-19.34s9.79-6.73,16.6-6.73c4.04,0,7.68.76,10.91,2.27,3.24,1.51,5.91,3.91,8.02,7.17,1.9,2.88,3.13,6.22,3.7,10.02.33,2.23.46,5.44.4,9.62h-33.23c.18,4.87,1.71,8.29,4.59,10.25,1.75,1.22,3.86,1.83,6.33,1.83,2.61,0,4.74-.74,6.37-2.23.89-.8,1.68-1.92,2.36-3.34h12.96Zm-12.56-14.88c-.21-3.36-1.23-5.9-3.05-7.64s-4.09-2.61-6.79-2.61c-2.94,0-5.22.92-6.84,2.76s-2.64,4.34-3.05,7.48h19.74Z"/><g><path class="cls-1" d="m267.99,106.07c3.48,2.7,5.57,7.34,6.27,13.93h-8.04c-.49-3.03-1.61-5.55-3.36-7.56s-4.55-3.01-8.41-3.01c-5.27,0-9.04,2.57-11.31,7.71-1.47,3.34-2.21,7.45-2.21,12.35s1.04,9.07,3.13,12.44c2.08,3.37,5.36,5.05,9.84,5.05,3.43,0,6.15-1.04,8.16-3.14,2.01-2.09,3.39-4.95,4.16-8.58h8.04c-.92,6.53-3.22,11.3-6.89,14.32-3.68,3.02-8.38,4.53-14.11,4.53-6.44,0-11.57-2.35-15.4-7.06-3.83-4.7-5.75-10.58-5.75-17.63,0-8.64,2.1-15.37,6.3-20.18,4.2-4.81,9.54-7.22,16.04-7.22,5.55,0,10.06,1.35,13.54,4.04Z"/><path class="cls-1" d="m308.92,122.89c1.9-.24,3.17-1.04,3.82-2.39.37-.74.55-1.8.55-3.18,0-2.83-1-4.88-3-6.16-2-1.28-4.87-1.91-8.6-1.91-4.31,0-7.37,1.17-9.17,3.51-1.01,1.29-1.67,3.22-1.97,5.77h-7.72c.15-6.08,2.12-10.32,5.9-12.7,3.78-2.38,8.16-3.57,13.15-3.57,5.78,0,10.48,1.1,14.09,3.31,3.58,2.21,5.37,5.64,5.37,10.3v28.36c0,.86.18,1.55.53,2.07.35.52,1.09.78,2.23.78.37,0,.78-.02,1.24-.07s.95-.11,1.47-.21v6.11c-1.29.37-2.27.6-2.94.69-.67.09-1.59.14-2.76.14-2.85,0-4.92-1.01-6.21-3.03-.67-1.07-1.15-2.59-1.42-4.55-1.69,2.21-4.11,4.12-7.26,5.75-3.16,1.62-6.63,2.43-10.43,2.43-4.57,0-8.3-1.38-11.19-4.15s-4.34-6.24-4.34-10.4c0-4.56,1.42-8.09,4.28-10.6,2.85-2.51,6.59-4.06,11.21-4.64l13.19-1.65Zm-17.42,22.35c1.75,1.38,3.81,2.06,6.2,2.06,2.91,0,5.73-.67,8.46-2.02,4.6-2.23,6.89-5.89,6.89-10.97v-6.65c-1.01.65-2.31,1.18-3.9,1.61s-3.15.74-4.68.92l-5,.64c-3,.4-5.25,1.02-6.76,1.88-2.56,1.44-3.84,3.73-3.84,6.88,0,2.38.87,4.26,2.62,5.64Z"/><path class="cls-1" d="m339.8,137.24c.25,2.76.95,4.87,2.11,6.34,2.13,2.67,5.82,4,11.07,4,3.13,0,5.88-.67,8.26-2,2.38-1.33,3.57-3.39,3.57-6.18,0-2.11-.95-3.72-2.85-4.83-1.22-.67-3.61-1.46-7.19-2.34l-6.68-1.66c-4.27-1.04-7.41-2.21-9.44-3.49-3.61-2.24-5.42-5.33-5.42-9.28,0-4.66,1.7-8.43,5.1-11.31s7.97-4.32,13.72-4.32c7.51,0,12.93,2.18,16.26,6.53,2.08,2.76,3.09,5.73,3.03,8.92h-7.81c-.16-1.86-.83-3.55-2.02-5.07-1.94-2.16-5.32-3.25-10.12-3.25-3.2,0-5.62.59-7.27,1.79-1.65,1.19-2.47,2.76-2.47,4.72,0,2.14,1.08,3.85,3.25,5.13,1.25.76,3.09,1.44,5.53,2.02l5.57,1.33c6.06,1.44,10.12,2.83,12.18,4.18,3.22,2.11,4.83,5.44,4.83,9.97s-1.68,8.17-5.05,11.35-8.49,4.78-15.38,4.78c-7.41,0-12.67-1.66-15.75-4.99-3.09-3.32-4.74-7.44-4.96-12.34h7.95Z"/><path class="cls-1" d="m383.61,89.71h8.37v13.74h7.86v6.76h-7.86v32.13c0,1.72.58,2.87,1.75,3.45.64.34,1.71.51,3.22.51.4,0,.83,0,1.29-.03s1-.07,1.61-.15v6.57c-.95.28-1.94.47-2.96.6-1.03.12-2.14.18-3.33.18-3.86,0-6.48-.99-7.86-2.96-1.38-1.98-2.07-4.54-2.07-7.7v-32.59h-6.66v-6.76h6.66v-13.74Z"/><path class="cls-1" d="m438.51,104.81c3.26,1.64,5.74,3.76,7.45,6.37,1.64,2.48,2.74,5.38,3.29,8.69.49,2.27.73,5.88.73,10.85h-35.81c.15,5.01,1.32,9.03,3.51,12.05,2.19,3.03,5.58,4.54,10.17,4.54,4.29,0,7.71-1.43,10.26-4.29,1.43-1.66,2.44-3.59,3.04-5.77h8.14c-.21,1.81-.93,3.82-2.14,6.04-1.21,2.22-2.56,4.04-4.05,5.45-2.49,2.45-5.58,4.11-9.26,4.96-1.98.49-4.21.74-6.71.74-6.09,0-11.25-2.23-15.48-6.69-4.23-4.46-6.35-10.7-6.35-18.73s2.13-14.32,6.39-19.26c4.26-4.93,9.84-7.4,16.72-7.4,3.47,0,6.84.82,10.09,2.46Zm2.96,19.33c-.33-3.58-1.11-6.45-2.33-8.59-2.25-3.98-6-5.98-11.26-5.98-3.77,0-6.93,1.37-9.48,4.11-2.55,2.74-3.9,6.23-4.06,10.46h27.12Z"/><path class="cls-1" d="m460.69,103.45h7.86v8.5c.64-1.66,2.22-3.67,4.73-6.04,2.51-2.37,5.41-3.56,8.69-3.56.15,0,.41.02.78.05.37.03,1,.09,1.88.18v8.73c-.49-.09-.94-.15-1.36-.18-.41-.03-.87-.05-1.36-.05-4.17,0-7.37,1.34-9.61,4.02-2.24,2.68-3.36,5.77-3.36,9.26v28.31h-8.27v-49.23Z"/></g></svg>