<svg id="Layer_1" xmlns="http://www.w3.org/2000/svg" viewBox="0 0 500 170"><defs><style>.cls-1{fill:#365aa9}.cls-2{fill:#0e1131}</style></defs><path class="cls-2" d="M246.41 20.42c-.38 0-.76.04-1.14.06-8.35-8.54-19.99-13.85-32.88-13.85-25.39 0-45.97 20.58-45.97 45.98S187 98.58 212.39 98.58c12.89 0 24.53-5.31 32.88-13.85.38.01.75.06 1.14.06 17.77 0 32.18-14.41 32.18-32.18s-14.41-32.18-32.18-32.18ZM212.4 84.78c-17.77 0-32.18-14.41-32.18-32.18s14.41-32.18 32.18-32.18c6.25 0 12.07 1.81 17.01 4.9-9.1 5.69-15.18 15.76-15.18 27.29s6.07 21.6 15.18 27.29c-4.94 3.09-10.76 4.9-17.01 4.9ZM23.17 162.86v-11.72h12.88v11.72H23.17Zm0-17.51V96.79h12.88v48.56H23.17ZM71.19 115.53c-4.31 0-7.26 1.83-8.87 5.48-.83 1.93-1.25 4.4-1.25 7.4v26.28H48.42v-48.47h12.25v7.08c1.63-2.49 3.18-4.29 4.63-5.39 2.61-1.96 5.93-2.94 9.93-2.94 5.02 0 9.13 1.31 12.32 3.94 3.19 2.63 4.79 6.99 4.79 13.08v32.7H79.33v-29.54c0-2.55-.34-4.51-1.02-5.88-1.25-2.49-3.62-3.74-7.13-3.74ZM148.26 96.28v65.58h-12.34v-6.73c-1.81 2.88-3.88 4.97-6.19 6.28s-5.2 1.96-8.64 1.96c-5.67 0-10.45-2.29-14.32-6.88-3.88-4.59-5.81-10.48-5.81-17.66 0-8.29 1.91-14.81 5.72-19.56 3.82-4.75 8.92-7.13 15.3-7.13 2.94 0 5.55.65 7.84 1.94s4.14 3.08 5.57 5.37V96.28h12.88Zm-34.21 41.61c0 4.48.89 8.06 2.67 10.74 1.75 2.7 4.43 4.05 8.02 4.05s6.33-1.34 8.2-4.01 2.81-6.13 2.81-10.38c0-5.94-1.5-10.19-4.5-12.74-1.84-1.54-3.98-2.32-6.42-2.32-3.71 0-6.44 1.4-8.18 4.21-1.74 2.81-2.61 6.29-2.61 10.45ZM172.86 96.79v11.72h-12.88V96.79h12.88Zm0 17.51v48.56h-12.88V114.3h12.88ZM226.72 139.69c-.33 2.88-1.83 5.81-4.5 8.78-4.16 4.72-9.98 7.08-17.46 7.08-6.18 0-11.63-1.99-16.35-5.97-4.72-3.98-7.08-10.45-7.08-19.42 0-8.41 2.13-14.85 6.39-19.34s9.79-6.73 16.6-6.73c4.04 0 7.68.76 10.91 2.27 3.24 1.51 5.91 3.91 8.02 7.17 1.9 2.88 3.13 6.22 3.7 10.02.33 2.23.46 5.44.4 9.62h-33.23c.18 4.87 1.71 8.29 4.59 10.25 1.75 1.22 3.86 1.83 6.33 1.83 2.61 0 4.74-.74 6.37-2.23.89-.8 1.68-1.92 2.36-3.34h12.96Zm-12.56-14.88c-.21-3.36-1.23-5.9-3.05-7.64s-4.09-2.61-6.79-2.61c-2.94 0-5.22.92-6.84 2.76s-2.64 4.34-3.05 7.48h19.74Z"/><path class="cls-1" d="M266.84 101.88c3.37 2.61 5.4 7.11 6.08 13.5h-7.8c-.48-2.94-1.56-5.38-3.25-7.33-1.69-1.95-4.41-2.92-8.15-2.92-5.11 0-8.76 2.49-10.96 7.48-1.43 3.23-2.14 7.22-2.14 11.97s1.01 8.8 3.03 12.06c2.02 3.26 5.2 4.89 9.53 4.89 3.33 0 5.96-1.01 7.91-3.04 1.95-2.03 3.29-4.8 4.03-8.32h7.8c-.89 6.33-3.12 10.95-6.68 13.88s-8.12 4.39-13.68 4.39c-6.24 0-11.21-2.28-14.92-6.84-3.71-4.56-5.57-10.25-5.57-17.09 0-8.38 2.03-14.89 6.1-19.56 4.07-4.66 9.25-6.99 15.55-6.99 5.38 0 9.75 1.31 13.12 3.92ZM306.52 118.18c1.84-.24 3.07-1.01 3.7-2.31.36-.72.53-1.74.53-3.09 0-2.74-.97-4.73-2.91-5.97s-4.72-1.86-8.34-1.86c-4.18 0-7.14 1.13-8.89 3.4-.98 1.25-1.62 3.12-1.91 5.6h-7.48c.15-5.9 2.05-10 5.72-12.31 3.66-2.31 7.91-3.46 12.75-3.46 5.61 0 10.16 1.07 13.66 3.21 3.47 2.14 5.21 5.46 5.21 9.98v27.49c0 .83.17 1.5.51 2 .34.5 1.06.76 2.16.76.36 0 .76-.02 1.2-.07s.92-.11 1.43-.2v5.92c-1.25.36-2.2.58-2.85.67-.65.09-1.54.13-2.67.13-2.76 0-4.77-.98-6.01-2.94-.65-1.04-1.11-2.51-1.38-4.41-1.63 2.14-3.98 4-7.04 5.57-3.06 1.57-6.43 2.36-10.11 2.36-4.43 0-8.04-1.34-10.85-4.03-2.81-2.68-4.21-6.04-4.21-10.08 0-4.42 1.38-7.85 4.14-10.28 2.76-2.43 6.39-3.93 10.87-4.5l12.79-1.6Zm-16.88 21.66c1.69 1.33 3.7 2 6.01 2 2.82 0 5.55-.65 8.2-1.96 4.46-2.17 6.68-5.71 6.68-10.63v-6.45c-.98.62-2.24 1.15-3.78 1.56-1.54.42-3.05.71-4.54.89l-4.85.62c-2.91.39-5.09.99-6.55 1.82-2.48 1.39-3.72 3.62-3.72 6.67 0 2.31.85 4.13 2.54 5.47ZM336.45 132.09c.24 2.67.92 4.72 2.05 6.15 2.06 2.58 5.64 3.88 10.73 3.88 3.03 0 5.7-.65 8-1.94s3.46-3.29 3.46-5.99c0-2.05-.92-3.61-2.76-4.68-1.18-.65-3.5-1.41-6.97-2.27l-6.47-1.6c-4.14-1.01-7.18-2.14-9.15-3.39-3.5-2.17-5.25-5.17-5.25-9 0-4.51 1.65-8.17 4.94-10.96 3.29-2.79 7.73-4.19 13.3-4.19 7.28 0 12.54 2.11 15.76 6.33 2.02 2.67 3 5.55 2.94 8.64h-7.57c-.15-1.8-.81-3.44-1.96-4.92-1.88-2.1-5.15-3.15-9.81-3.15-3.1 0-5.45.58-7.05 1.73-1.6 1.15-2.39 2.68-2.39 4.57 0 2.07 1.05 3.73 3.15 4.97 1.21.74 3 1.39 5.36 1.96l5.4 1.29c5.87 1.4 9.8 2.75 11.8 4.05 3.12 2.05 4.68 5.27 4.68 9.67s-1.63 7.92-4.89 11-8.23 4.63-14.91 4.63c-7.19 0-12.28-1.61-15.27-4.83-2.99-3.22-4.59-7.21-4.8-11.96h7.71ZM378.91 86.02h8.11v13.32h7.62v6.55h-7.62v31.14c0 1.66.56 2.78 1.69 3.34.62.33 1.66.49 3.12.49.39 0 .8 0 1.25-.03s.96-.07 1.56-.15v6.37c-.92.27-1.88.46-2.87.58-1 .12-2.07.18-3.23.18-3.74 0-6.28-.96-7.62-2.87s-2-4.4-2-7.46v-31.59h-6.46v-6.55h6.46V86.02ZM437.23 104.1c4.22 4.1 6.33 10.12 6.33 18.07s-1.86 14.04-5.57 19.05-9.48 7.52-17.3 7.52c-6.52 0-11.69-2.22-15.53-6.65s-5.75-10.39-5.75-17.87c0-8.01 2.02-14.39 6.06-19.14s9.47-7.12 16.28-7.12c6.1 0 11.27 2.05 15.48 6.14Zm-4.98 31.71c1.95-4.02 2.93-8.49 2.93-13.42 0-4.45-.71-8.07-2.11-10.86-2.23-4.39-6.08-6.59-11.54-6.59-4.85 0-8.37 1.87-10.57 5.61-2.2 3.74-3.3 8.25-3.3 13.53s1.1 9.3 3.3 12.68c2.2 3.38 5.7 5.07 10.49 5.07 5.26 0 8.86-2.01 10.81-6.03ZM453.62 99.34h7.62v8.24c.62-1.6 2.15-3.56 4.59-5.86 2.43-2.3 5.24-3.45 8.42-3.45.15 0 .4.02.76.04.36.03.96.09 1.83.18v8.46c-.48-.09-.91-.15-1.31-.18s-.84-.04-1.31-.04c-4.04 0-7.14 1.3-9.31 3.9-2.17 2.6-3.25 5.59-3.25 8.98v27.44h-8.02V99.34Z"/></svg>
