<?xml version="1.0" standalone="no"?>
<!DOCTYPE svg PUBLIC "-//W3C//DTD SVG 20010904//EN"
 "http://www.w3.org/TR/2001/REC-SVG-20010904/DTD/svg10.dtd">
<svg version="1.0" xmlns="http://www.w3.org/2000/svg"
 width="700.000000pt" height="700.000000pt" viewBox="0 0 700.000000 700.000000"
 preserveAspectRatio="xMidYMid meet">
<metadata>
Created by potrace 1.14, written by Peter Selinger 2001-2017
</metadata>
<g transform="translate(0.000000,700.000000) scale(0.100000,-0.100000)"
fill="#000000" stroke="none">
<path d="M2739 6146 c-2 -2 -41 -7 -86 -10 -46 -4 -93 -9 -105 -11 -12 -3 -40
-7 -63 -10 -94 -14 -279 -60 -400 -100 -565 -188 -1041 -551 -1373 -1048 -80
-119 -162 -267 -218 -392 -110 -249 -186 -535 -209 -790 -4 -38 -8 -76 -11
-84 -5 -15 -5 -321 0 -391 28 -392 156 -811 347 -1131 18 -30 37 -63 43 -74
61 -112 225 -318 369 -464 434 -441 980 -705 1605 -776 112 -12 488 -13 557
-1 17 3 50 7 75 11 526 64 1041 309 1454 688 l88 82 87 2 c252 5 456 46 681
138 427 174 771 500 971 919 81 171 124 310 164 536 11 60 14 412 5 475 -5 33
-12 80 -16 105 -3 25 -10 63 -16 85 -6 22 -11 45 -12 50 -44 202 -171 465
-321 663 -341 453 -900 736 -1450 735 l-89 0 -101 91 c-130 119 -374 306 -399
306 -3 0 -21 11 -41 25 -52 35 -255 137 -356 178 -212 87 -449 148 -709 182
-54 7 -465 17 -471 11z m439 -811 c150 -23 242 -46 382 -97 94 -34 322 -148
326 -163 2 -6 -18 -23 -44 -39 -112 -70 -288 -230 -394 -356 -117 -140 -227
-328 -301 -515 -36 -89 -92 -293 -102 -370 -28 -215 -27 -425 4 -607 40 -238
143 -497 279 -703 36 -55 68 -102 71 -105 3 -3 28 -32 55 -65 100 -120 249
-257 368 -336 37 -24 66 -48 65 -54 -4 -14 -251 -137 -339 -168 -62 -22 -256
-78 -266 -77 -1 1 -17 -2 -35 -5 -17 -3 -45 -7 -62 -10 -140 -23 -381 -23
-545 1 -301 43 -644 194 -885 389 -315 255 -545 616 -638 1005 -14 58 -29 125
-32 150 -3 25 -8 59 -11 75 -12 68 -10 318 2 430 37 319 155 620 349 887 123
168 355 379 540 490 357 214 812 305 1213 243z"/>
</g>
</svg>
