<svg xmlns="http://www.w3.org/2000/svg" viewBox="0 0 200 50"><path class="cls-1" d="M23.51 4.24c-11.61 0-21 9.39-21 21 0 9.29 6.01 17.14 14.36 19.92 1.05.18 1.44-.45 1.44-1 0-.5-.03-2.15-.03-3.91-5.28.97-6.64-1.29-7.06-2.47-.24-.6-1.26-2.47-2.15-2.97-.73-.39-1.79-1.36-.03-1.39 1.65-.03 2.83 1.52 3.23 2.15 1.89 3.18 4.91 2.28 6.12 1.73.18-1.37.74-2.28 1.34-2.81-4.67-.52-9.56-2.34-9.56-10.37 0-2.28.81-4.17 2.15-5.64-.21-.52-.95-2.68.21-5.56 0 0 1.76-.55 5.78 2.15 1.68-.47 3.47-.71 5.25-.71s3.57.24 5.25.71c4.02-2.73 5.77-2.15 5.77-2.15 1.15 2.89.42 5.04.21 5.57 1.34 1.47 2.15 3.33 2.15 5.64 0 8.06-4.91 9.84-9.58 10.37.76.66 1.42 1.92 1.42 3.89 0 2.81-.03 5.07-.03 5.77 0 .55.39 1.21 1.44 1 8.55-2.89 14.3-10.9 14.31-19.92 0-11.6-9.4-21-21-21ZM89.84 44.41s-2.62 0-2.62-2.62 2.62-10.5 13.12-10.5 13.12 7.88 13.12 10.5-2.62 2.62-2.62 2.62h-21Zm10.5-15.62c3.62 0 6.56-2.94 6.56-6.56s-2.94-6.56-6.56-6.56-6.56 2.94-6.56 6.56 2.94 6.56 6.56 6.56Z"/><path class="cls-1" d="M84.59 5.03a5.25 5.25 0 0 0-5.25 5.25v24.94c0 2.17 1.76 3.94 3.94 3.94h1.71c.55-1.93 1.5-3.72 2.8-5.25h-5.82V10.28c0-1.45 1.18-2.62 2.62-2.62h31.5c1.45 0 2.62 1.18 2.62 2.62v23.63h-5.82c1.45 1.72 2.34 3.6 2.8 5.25h1.71c2.17 0 3.94-1.76 3.94-3.94V10.28c0-2.9-2.35-5.25-5.25-5.25h-31.5Z"/><path d="M186.61 18.29h-.02s-.02-.01-.03-.02c-.03-.03-.04-.07-.03-.1l.85-5.18 3.98 3.98-4.13 1.76h-.06s-.01 0-.02-.02c-.15-.17-.34-.31-.54-.42Zm5.77-.32 4.25 4.25c.88.88 1.32 1.32 1.49 1.84l.06.23-10.16-4.3H188c-.04-.02-.09-.04-.09-.08s.05-.06.09-.08h.01l4.36-1.85Zm5.62 7.68c-.22.41-.65.84-1.37 1.56L191.84 32l-6.2-1.29h-.03c-.05-.02-.11-.03-.11-.07-.05-.52-.31-.99-.72-1.31-.03-.03-.02-.06-.01-.1v-.02l1.17-7.16v-.02c.01-.05.02-.12.07-.12.5-.06.96-.33 1.27-.73 0-.01.02-.02.03-.03.04-.02.08 0 .11.02L198 25.65Zm-7.26 7.46-7.88 7.88 1.35-8.29v-.04c.01-.03.04-.04.07-.05h.01c.3-.13.56-.33.76-.57.03-.03.06-.06.1-.07h.03l5.55 1.14Zm-9.55 9.55-.89.89-9.82-14.19s0-.01-.01-.02a.09.09 0 0 1-.03-.07c0-.02.01-.03.02-.05h.01c.03-.06.05-.1.08-.15l.02-.04s.03-.05.06-.07c.02-.01.05 0 .08 0l10.88 2.24s.06.02.08.04c.01.01.02.03.02.05.15.58.57 1.06 1.13 1.29.03.02.02.05 0 .09 0 .02-.01.03-.02.05-.14.83-1.31 8-1.63 9.94Zm-1.86 1.85c-.65.65-1.04.99-1.48 1.13-.43.14-.89.14-1.32 0-.51-.16-.95-.6-1.84-1.49l-9.86-9.86 2.58-3.99s.02-.04.04-.05c.03-.02.07-.01.1 0 .59.18 1.23.15 1.8-.09.03-.01.06-.02.08 0 .01.01.02.02.03.04l9.87 14.32Zm-15.45-11.17-2.26-2.26 4.47-1.91h.04c.04 0 .06.04.08.07.04.07.09.14.14.2v.02s.02.04 0 .05l-2.47 3.83Zm-3.26-3.26-2.86-2.86c-.49-.49-.84-.84-1.09-1.14l8.7 1.8h.03c.05 0 .11.02.11.07s-.06.08-.12.1h-.03l-4.76 2.03Zm-4.45-5.48c0-.18.04-.37.1-.54.16-.51.6-.95 1.49-1.84l3.66-3.66c1.69 2.45 3.38 4.89 5.07 7.33.03.04.06.08.03.12-.16.18-.32.37-.43.58-.01.03-.03.05-.05.07h-.05l-9.81-2.06Zm6.23-7.02 4.92-4.92c.46.2 2.15.91 3.65 1.55 1.14.48 2.18.92 2.51 1.06.03.01.06.03.08.06v.07c-.16.72.06 1.48.57 2 .03.03 0 .08-.03.12l-.02.02-5 7.75s-.03.04-.05.05c-.03.02-.06 0-.09 0-.19-.05-.39-.08-.6-.08-.18 0-.38.03-.57.07s-.04 0-.06 0c-.02-.02-.04-.03-.05-.06l-5.27-7.69Zm5.92-5.92 6.38-6.38c.88-.88 1.32-1.32 1.84-1.49.43-.14.89-.14 1.32 0 .51.16.95.6 1.84 1.49l1.38 1.38-4.53 7.02s-.03.04-.04.05c-.03.02-.07.01-.1 0-.73-.22-1.51-.07-2.11.41-.03.03-.07.01-.11 0-.59-.26-5.2-2.2-5.86-2.48Zm13.71-4.03 4.19 4.19-1.01 6.25v.06c-.01.02-.03.03-.05.03-.22.07-.42.17-.6.3 0 0-.02.01-.02.02-.01.01-.02.03-.04.03h-.05l-6.38-2.71h-.01s-.09-.04-.09-.08c-.04-.36-.15-.7-.34-1-.03-.05-.06-.1-.04-.15l4.46-6.91Zm-4.31 9.44 5.98 2.53s.07.03.08.06v.06c-.02.09-.03.19-.03.29v.17s-.04.06-.08.08h-.01c-.95.41-13.3 5.68-13.32 5.68s-.04 0-.06-.02c-.03-.03 0-.08.03-.12l.02-.02 4.91-7.61c.03-.06.06-.11.11-.11h.05c.11.02.21.04.31.04.75 0 1.44-.36 1.85-.98 0-.02.02-.03.04-.04.03-.02.07-.01.11 0Zm-6.85 10.07 13.47-5.74s.02 0 .04.02c.07.07.14.12.2.17l.03.02s.05.03.06.06v.03l-1.15 7.09v.03c-.01.05-.02.12-.07.12-.62.04-1.19.39-1.51.93s-.03.06-.05.07c-.02.01-.05 0-.08 0l-10.74-2.22s-.17-.57-.18-.57Z" style="fill:#101f25"/></svg>
